<?xml version="1.0" encoding="UTF-8" standalone="no"?>
<svg
   xmlns:dc="http://purl.org/dc/elements/1.1/"
   xmlns:cc="http://creativecommons.org/ns#"
   xmlns:rdf="http://www.w3.org/1999/02/22-rdf-syntax-ns#"
   xmlns:svg="http://www.w3.org/2000/svg"
   xmlns="http://www.w3.org/2000/svg"
   viewBox="0 0 326.83789 640.02563"
   height="640.02563"
   width="326.83789"
   id="svg10"
   version="1.1">
  <metadata
     id="metadata16">
    <rdf:RDF>
      <cc:Work
         rdf:about="">
        <dc:format>image/svg+xml</dc:format>
        <dc:type
           rdf:resource="http://purl.org/dc/dcmitype/StillImage" />
        <dc:title></dc:title>
      </cc:Work>
    </rdf:RDF>
  </metadata>
  <defs
     id="defs14" />
  <g
     transform="translate(-3.4714498,-3.3559083)"
     id="g3764">
    <path
       id="path3778"
       d="m 310.53512,345.37723 c 0,-1.375 0.22698,-1.9375 0.50439,-1.25 0.27741,0.6875 0.27741,1.8125 0,2.5 -0.27741,0.6875 -0.50439,0.125 -0.50439,-1.25 z M 37.127226,327.71495 c 0.6875,-0.27741 1.8125,-0.27741 2.5,0 0.6875,0.27741 0.125,0.50439 -1.25,0.50439 -1.375,0 -1.9375,-0.22698 -1.25,-0.50439 z m 128.519034,-0.0307 c 0.97297,-0.25354 2.32297,-0.23687 3,0.0371 0.67703,0.27393 -0.11903,0.48137 -1.76903,0.46099 -1.65,-0.0204 -2.20394,-0.2445 -1.23097,-0.49804 z m 128.48097,0.0307 c 0.6875,-0.27741 1.8125,-0.27741 2.5,0 0.6875,0.27741 0.125,0.50439 -1.25,0.50439 -1.375,0 -1.9375,-0.22698 -1.25,-0.50439 z M 45.377226,323.87723 c 1.865783,-1.925 3.617334,-3.5 3.892334,-3.5 0.275,0 -1.026551,1.575 -2.892334,3.5 -1.865783,1.925 -3.617334,3.5 -3.892334,3.5 -0.275,0 1.026551,-1.575 2.892334,-3.5 z m 113.000004,-1 c -2.42903,-2.475 -4.19142,-4.5 -3.91642,-4.5 0.275,0 2.48739,2.025 4.91642,4.5 2.42903,2.475 4.19142,4.5 3.91642,4.5 -0.275,0 -2.48739,-2.025 -4.91642,-4.5 z m 15.95821,0.25 c 2.45201,-2.6125 4.58951,-4.75 4.75,-4.75 0.75088,0 -0.043,0.89783 -4.45821,5.04179 l -4.75,4.45821 z m 112.98796,0.5 -3.44617,-3.75 3.75,3.44617 c 2.0625,1.89539 3.75,3.58289 3.75,3.75 0,0.76362 -0.84622,0.0442 -4.05383,-3.44617 z M 28.836107,321.3107 c -0.362533,-0.58659 -0.444683,-1.281 -0.182555,-1.54313 0.262128,-0.26213 0.743066,0.21781 1.068751,1.06653 0.676184,1.76211 0.09985,2.07206 -0.886196,0.4766 z m -1.379934,-4.5168 c 0.04798,-1.16495 0.284941,-1.4019 0.604167,-0.60417 0.288871,0.72187 0.253344,1.58438 -0.07895,1.91667 -0.332292,0.33229 -0.568641,-0.25834 -0.52522,-1.3125 z m 278.000007,0 c 0.048,-1.16495 0.28494,-1.4019 0.60416,-0.60417 0.28887,0.72187 0.25335,1.58438 -0.0789,1.91667 -0.33229,0.33229 -0.56864,-0.25834 -0.52522,-1.3125 z m -254.078954,0.27042 c 0,-0.1721 1.4625,-1.6346 3.25,-3.25 l 3.25,-2.93709 -2.937091,3.25 c -2.737781,3.02946 -3.562909,3.70965 -3.562909,2.93709 z m 227.437094,-2.93709 -2.93709,-3.25 3.25,2.93709 c 3.02946,2.73778 3.70965,3.56291 2.93709,3.56291 -0.1721,0 -1.6346,-1.4625 -3.25,-3.25 z m -130,-2 -2.93709,-3.25 3.25,2.93709 c 3.02946,2.73778 3.70965,3.56291 2.93709,3.56291 -0.1721,0 -1.6346,-1.4625 -3.25,-3.25 z m 32.56291,2.93709 c 0,-0.1721 1.4625,-1.6346 3.25,-3.25 l 3.25,-2.93709 -2.93709,3.25 c -2.73778,3.02946 -3.56291,3.70965 -3.56291,2.93709 z M 27.456173,310.7939 c 0.04798,-1.16495 0.284941,-1.4019 0.604167,-0.60417 0.288871,0.72187 0.253344,1.58438 -0.07895,1.91667 -0.332292,0.33229 -0.568641,-0.25834 -0.52522,-1.3125 z m 278.000007,0 c 0.048,-1.16495 0.28494,-1.4019 0.60416,-0.60417 0.28887,0.72187 0.25335,1.58438 -0.0789,1.91667 -0.33229,0.33229 -0.56864,-0.25834 -0.52522,-1.3125 z M 61.377226,305.87723 c 1.291745,-1.375 2.573628,-2.5 2.848628,-2.5 0.275,0 -0.556883,1.125 -1.848628,2.5 -1.291745,1.375 -2.573628,2.5 -2.848628,2.5 -0.275,0 0.556883,-1.125 1.848628,-2.5 z m 209.924314,-0.25 -2.42431,-2.75 2.75,2.42431 c 2.57029,2.26589 3.20859,3.07569 2.42431,3.07569 -0.17912,0 -1.41662,-1.2375 -2.75,-2.75 z m -129.48722,-1.5 -2.93709,-3.25 3.25,2.93709 c 3.02946,2.73778 3.70965,3.56291 2.93709,3.56291 -0.1721,0 -1.6346,-1.4625 -3.25,-3.25 z m 46.56291,2.93709 c 0,-0.1721 1.4625,-1.6346 3.25,-3.25 l 3.25,-2.93709 -2.93709,3.25 c -2.73778,3.02946 -3.56291,3.70965 -3.56291,2.93709 z M 68.377226,297.87723 c 1.291745,-1.375 2.573628,-2.5 2.848628,-2.5 0.275,0 -0.556883,1.125 -1.848628,2.5 -1.291745,1.375 -2.573628,2.5 -2.848628,2.5 -0.275,0 0.556883,-1.125 1.848628,-2.5 z m 195.437094,-0.75 -2.93709,-3.25 3.25,2.93709 c 3.02946,2.73778 3.70965,3.56291 2.93709,3.56291 -0.1721,0 -1.6346,-1.4625 -3.25,-3.25 z m -130,-2 -2.93709,-3.25 3.25,2.93709 c 1.7875,1.6154 3.25,3.0779 3.25,3.25 0,0.77256 -0.82513,0.0924 -3.56291,-2.93709 z m 62.56291,2.93709 c 0,-0.1721 1.4625,-1.6346 3.25,-3.25 l 3.25,-2.93709 -2.93709,3.25 c -2.73778,3.02946 -3.56291,3.70965 -3.56291,2.93709 z m -123.000004,-6 c 0,-0.1721 1.4625,-1.6346 3.25,-3.25 l 3.25,-2.93709 -2.937091,3.25 c -2.737781,3.02946 -3.562909,3.70965 -3.562909,2.93709 z m 182.924314,-3.43709 -2.42431,-2.75 2.75,2.42431 c 2.57029,2.26589 3.20859,3.07569 2.42431,3.07569 -0.17912,0 -1.41662,-1.2375 -2.75,-2.75 z m -129.48722,-1.5 -2.93709,-3.25 3.25,2.93709 c 1.7875,1.6154 3.25,3.0779 3.25,3.25 0,0.77256 -0.82513,0.0924 -3.56291,-2.93709 z m 76.56291,2.93709 c 0,-0.1721 1.4625,-1.6346 3.25,-3.25 l 3.25,-2.93709 -2.93709,3.25 c -2.73778,3.02946 -3.56291,3.70965 -3.56291,2.93709 z M 82.877226,281.37723 c 0.995486,-1.1 2.034975,-2 2.309975,-2 0.275,0 -0.314489,0.9 -1.309975,2 -0.995486,1.1 -2.034975,2 -2.309975,2 -0.275,0 0.314489,-0.9 1.309975,-2 z m 166.904994,-0.25 -1.90499,-2.25 2.25,1.90499 c 2.11444,1.79022 2.70524,2.59501 1.90499,2.59501 -0.18976,0 -1.20226,-1.0125 -2.25,-2.25 z m -131.21004,-7.25 c 0.0204,-1.65 0.2445,-2.20394 0.49804,-1.23097 0.25354,0.97297 0.23687,2.32297 -0.037,3 -0.27393,0.67703 -0.48137,-0.11903 -0.46099,-1.76903 z m 96,0 c 0.0204,-1.65 0.2445,-2.20394 0.49804,-1.23097 0.25354,0.97297 0.23687,2.32297 -0.0371,3 -0.27393,0.67703 -0.48137,-0.11903 -0.46099,-1.76903 z m -91.19495,-10 c 1.29175,-1.375 2.57363,-2.5 2.84863,-2.5 0.275,0 -0.55688,1.125 -1.84863,2.5 -1.29175,1.375 -2.57363,2.5 -2.84863,2.5 -0.275,0 0.55688,-1.125 1.84863,-2.5 z m 85.92431,-0.25 -2.42431,-2.75 2.75,2.42431 c 2.57029,2.26589 3.20859,3.07569 2.42431,3.07569 -0.17912,0 -1.41662,-1.2375 -2.75,-2.75 z m -129.487223,-1.5 -2.937091,-3.25 3.25,2.93709 c 3.029455,2.73778 3.709652,3.56291 2.937091,3.56291 -0.1721,0 -1.6346,-1.4625 -3.25,-3.25 z m 170.562913,2.93709 c 0,-0.1721 1.4625,-1.6346 3.25,-3.25 l 3.25,-2.93709 -2.93709,3.25 c -2.73778,3.02946 -3.56291,3.70965 -3.56291,2.93709 z m -123,-6 c 0,-0.1721 1.4625,-1.6346 3.25,-3.25 l 3.25,-2.93709 -2.93709,3.25 c -2.73778,3.02946 -3.56291,3.70965 -3.56291,2.93709 z m -65.000004,-3.18709 c 1.291745,-1.375 2.573628,-2.5 2.848628,-2.5 0.275,0 -0.556883,1.125 -1.848628,2.5 -1.291745,1.375 -2.573628,2.5 -2.848628,2.5 -0.275,0 0.556883,-1.125 1.848628,-2.5 z m 139.924314,-0.25 -2.42431,-2.75 2.75,2.42431 c 2.57029,2.26589 3.20859,3.07569 2.42431,3.07569 -0.17912,0 -1.41662,-1.2375 -2.75,-2.75 z m 68,0 -2.42431,-2.75 2.75,2.42431 c 2.57029,2.26589 3.20859,3.07569 2.42431,3.07569 -0.17912,0 -1.41662,-1.2375 -2.75,-2.75 z m -196.051869,0 c -1.243871,-1.58606 -1.208501,-1.62143 0.377555,-0.37756 0.9625,0.75485 1.75,1.54235 1.75,1.75 0,0.82304 -0.821186,0.29331 -2.127555,-1.37244 z m 24.756718,-1.04101 c -0.268879,-0.43506 1.054561,-0.61082 2.940981,-0.39059 1.88643,0.22022 3.42986,0.57618 3.42986,0.79101 0,0.75258 -5.886924,0.38257 -6.370841,-0.40042 z m 129.370841,0.40042 c 0,-0.21483 1.54343,-0.57079 3.42985,-0.79101 1.88642,-0.22023 3.20987,-0.0445 2.94099,0.39059 -0.48392,0.78299 -6.37084,1.153 -6.37084,0.40042 z M 68.189726,252.69412 c 0.721875,-0.28887 1.584375,-0.25335 1.916667,0.0789 0.332291,0.33229 -0.258334,0.56864 -1.3125,0.52522 -1.164943,-0.048 -1.4019,-0.28494 -0.604167,-0.60416 z m 27.059945,-1.06689 c -1.243871,-1.58606 -1.208501,-1.62143 0.377555,-0.37756 0.9625,0.75485 1.75,1.54235 1.75,1.75 0,0.82304 -0.821186,0.29331 -2.127555,-1.37244 z m 141.127559,1.37244 c 0,-0.20765 0.7875,-0.99515 1.75,-1.75 1.58606,-1.24387 1.62143,-1.2085 0.37756,0.37756 -1.30637,1.66575 -2.12756,2.19548 -2.12756,1.37244 z m 27.8125,-0.30555 c 0.72187,-0.28887 1.58438,-0.25335 1.91667,0.0789 0.33229,0.33229 -0.25834,0.56864 -1.3125,0.52522 -1.16495,-0.048 -1.4019,-0.28494 -0.60417,-0.60416 z m -128.8125,-2.6298 c 0,-0.1721 1.4625,-1.6346 3.25,-3.25 l 3.25,-2.93709 -2.93709,3.25 c -2.73778,3.02946 -3.56291,3.70965 -3.56291,2.93709 z m 59.43709,-2.93709 -2.93709,-3.25 3.25,2.93709 c 3.02946,2.73778 3.70965,3.56291 2.93709,3.56291 -0.1721,0 -1.6346,-1.4625 -3.25,-3.25 z m -81.43709,-0.25 c 1.29175,-1.375 2.57363,-2.5 2.84863,-2.5 0.275,0 -0.55688,1.125 -1.84863,2.5 -1.29175,1.375 -2.57363,2.5 -2.84863,2.5 -0.275,0 0.55688,-1.125 1.84863,-2.5 z m 105.92431,-0.25 -2.42431,-2.75 2.75,2.42431 c 2.57029,2.26589 3.20859,3.07569 2.42431,3.07569 -0.17912,0 -1.41662,-1.2375 -2.75,-2.75 z m -130,-2 -2.424314,-2.75 2.75,2.42431 c 2.570289,2.26589 3.208588,3.07569 2.424314,3.07569 -0.179127,0 -1.416627,-1.2375 -2.75,-2.75 z m 154.07569,0.25 c 1.29175,-1.375 2.57363,-2.5 2.84863,-2.5 0.275,0 -0.55688,1.125 -1.84863,2.5 -1.29175,1.375 -2.57363,2.5 -2.84863,2.5 -0.275,0 0.55688,-1.125 1.84863,-2.5 z m -101,-2.81291 c 0,-0.1721 1.4625,-1.6346 3.25,-3.25 l 3.25,-2.93709 -2.93709,3.25 c -2.73778,3.02946 -3.56291,3.70965 -3.56291,2.93709 z m 45.43709,-2.93709 -2.93709,-3.25 3.25,2.93709 c 3.02946,2.73778 3.70965,3.56291 2.93709,3.56291 -0.1721,0 -1.6346,-1.4625 -3.25,-3.25 z M 85.836107,240.3107 c -0.362533,-0.58659 -0.444683,-1.281 -0.182555,-1.54313 0.262128,-0.26213 0.743066,0.21781 1.068751,1.06653 0.676184,1.76211 0.09985,2.07206 -0.886196,0.4766 z m 32.541123,0.75362 c 0,-0.1721 1.4625,-1.6346 3.25,-3.25 l 3.25,-2.93709 -2.93709,3.25 c -2.73778,3.02946 -3.56291,3.70965 -3.56291,2.93709 z m 93.43709,-2.93709 -2.93709,-3.25 3.25,2.93709 c 3.02946,2.73778 3.70965,3.56291 2.93709,3.56291 -0.1721,0 -1.6346,-1.4625 -3.25,-3.25 z m 35.1272,1.95687 c 0.37553,-0.98622 0.93469,-1.54122 1.24258,-1.23333 0.30789,0.30789 6.4e-4,1.11479 -0.68278,1.79313 -0.98762,0.98026 -1.10248,0.8654 -0.5598,-0.5598 z M 85.377226,233.43625 c 0,-0.51754 0.444846,-1.21592 0.988546,-1.55194 0.56686,-0.35034 0.734507,0.0511 0.393011,0.94098 -0.664791,1.73242 -1.381557,2.04939 -1.381557,0.61096 z m 161.564294,-0.76589 c -0.54268,-1.4252 -0.42782,-1.54006 0.5598,-0.5598 0.68342,0.67834 0.99067,1.48524 0.68278,1.79313 -0.30789,0.30789 -0.86705,-0.24711 -1.24258,-1.23333 z m -94.56429,-1.79313 c 1.29175,-1.375 2.57363,-2.5 2.84863,-2.5 0.275,0 -0.55688,1.125 -1.84863,2.5 -1.29175,1.375 -2.57363,2.5 -2.84863,2.5 -0.275,0 0.55688,-1.125 1.84863,-2.5 z m 27.43709,-0.75 -2.93709,-3.25 3.25,2.93709 c 3.02946,2.73778 3.70965,3.56291 2.93709,3.56291 -0.1721,0 -1.6346,-1.4625 -3.25,-3.25 z m -51.43709,-0.25 c 1.29175,-1.375 2.57363,-2.5 2.84863,-2.5 0.275,0 -0.55688,1.125 -1.84863,2.5 -1.29175,1.375 -2.57363,2.5 -2.84863,2.5 -0.275,0 0.55688,-1.125 1.84863,-2.5 z m 75.92431,-0.25 -2.42431,-2.75 2.75,2.42431 c 2.57029,2.26589 3.20859,3.07569 2.42431,3.07569 -0.17912,0 -1.41662,-1.2375 -2.75,-2.75 z m -44.92431,-6.75 c 1.29175,-1.375 2.57363,-2.5 2.84863,-2.5 0.275,0 -0.55688,1.125 -1.84863,2.5 -1.29175,1.375 -2.57363,2.5 -2.84863,2.5 -0.275,0 0.55688,-1.125 1.84863,-2.5 z m 13.92431,-0.25 -2.42431,-2.75 2.75,2.42431 c 2.57029,2.26589 3.20859,3.07569 2.42431,3.07569 -0.17912,0 -1.41662,-1.2375 -2.75,-2.75 z m -37.92431,-0.75 c 1.29175,-1.375 2.57363,-2.5 2.84863,-2.5 0.275,0 -0.55688,1.125 -1.84863,2.5 -1.29175,1.375 -2.57363,2.5 -2.84863,2.5 -0.275,0 0.55688,-1.125 1.84863,-2.5 z m 61.43709,-0.75 -2.93709,-3.25 3.25,2.93709 c 3.02946,2.73778 3.70965,3.56291 2.93709,3.56291 -0.1721,0 -1.6346,-1.4625 -3.25,-3.25 z m -56.43709,-5.06291 c 0,-0.1721 1.4625,-1.6346 3.25,-3.25 l 3.25,-2.93709 -2.93709,3.25 c -2.73778,3.02946 -3.56291,3.70965 -3.56291,2.93709 z m 48.92431,-3.43709 -2.42431,-2.75 2.75,2.42431 c 2.57029,2.26589 3.20859,3.07569 2.42431,3.07569 -0.17912,0 -1.41662,-1.2375 -2.75,-2.75 z m 27.51682,-0.80517 c -1.86402,-1.49339 -1.85176,-1.51185 0.30887,-0.46481 1.2375,0.59969 2.25,1.29951 2.25,1.55516 0,0.76522 -0.51861,0.54424 -2.55887,-1.09035 z M 144.62723,195.6879 c 0.9625,-0.25152 2.5375,-0.25152 3.5,0 0.9625,0.25153 0.175,0.45733 -1.75,0.45733 -1.925,0 -2.7125,-0.2058 -1.75,-0.45733 z m 41,0 c 0.9625,-0.25152 2.5375,-0.25152 3.5,0 0.9625,0.25153 0.175,0.45733 -1.75,0.45733 -1.925,0 -2.7125,-0.2058 -1.75,-0.45733 z m -97.845016,-12.56067 -1.904988,-2.25 2.25,1.90499 c 2.114445,1.79022 2.705241,2.59501 1.904988,2.59501 -0.189757,0 -1.202257,-1.0125 -2.25,-2.25 z m 61.595016,1.87244 c 0,-0.20765 0.7875,-0.99515 1.75,-1.75 1.58606,-1.24387 1.62143,-1.2085 0.37756,0.37756 -1.30637,1.66575 -2.12756,2.19548 -2.12756,1.37244 z m 32.87244,-1.37244 c -1.24387,-1.58606 -1.2085,-1.62143 0.37756,-0.37756 0.9625,0.75485 1.75,1.54235 1.75,1.75 0,0.82304 -0.82119,0.29331 -2.12756,-1.37244 z m 62.62756,-0.25 c 0.99549,-1.1 2.03498,-2 2.30998,-2 0.275,0 -0.31449,0.9 -1.30998,2 -0.99549,1.1 -2.03498,2 -2.30998,2 -0.275,0 0.31449,-0.9 1.30998,-2 z m -94.62756,-4.75 c -1.24387,-1.58606 -1.2085,-1.62143 0.37756,-0.37756 0.9625,0.75485 1.75,1.54235 1.75,1.75 0,0.82304 -0.82119,0.29331 -2.12756,-1.37244 z m 31.12756,1.37244 c 0,-0.20765 0.7875,-0.99515 1.75,-1.75 1.58606,-1.24387 1.62143,-1.2085 0.37756,0.37756 -1.30637,1.66575 -2.12756,2.19548 -2.12756,1.37244 z m -105.595016,-9.87244 -1.904988,-2.25 2.25,1.90499 c 2.114445,1.79022 2.705241,2.59501 1.904988,2.59501 -0.189757,0 -1.202257,-1.0125 -2.25,-2.25 z m 181.095016,0.25 c 0.99549,-1.1 2.03498,-2 2.30998,-2 0.275,0 -0.31449,0.9 -1.30998,2 -0.99549,1.1 -2.03498,2 -2.30998,2 -0.275,0 0.31449,-0.9 1.30998,-2 z m -192.095016,-12.25 -1.904988,-2.25 2.25,1.90499 c 2.114445,1.79022 2.705241,2.59501 1.904988,2.59501 -0.189757,0 -1.202257,-1.0125 -2.25,-2.25 z m 203.095016,0.25 c 0.99549,-1.1 2.03498,-2 2.30998,-2 0.275,0 -0.31449,0.9 -1.30998,2 -0.99549,1.1 -2.03498,2 -2.30998,2 -0.275,0 0.31449,-0.9 1.30998,-2 z m -214.627559,-12.75 c -1.243871,-1.58606 -1.208501,-1.62143 0.377555,-0.37756 1.665748,1.30637 2.195479,2.12756 1.372445,2.12756 -0.207656,0 -0.995156,-0.7875 -1.75,-1.75 z m 226.627559,-0.25 c 0.99549,-1.1 2.03498,-2 2.30998,-2 0.275,0 -0.31449,0.9 -1.30998,2 -0.99549,1.1 -2.03498,2 -2.30998,2 -0.275,0 0.31449,-0.9 1.30998,-2 z"
       style="fill:#fdecae" />
    <path
       id="path3776"
       d="m 149.37723,642.99967 c 0,-0.20765 0.7875,-0.99515 1.75,-1.75 1.58606,-1.24387 1.62143,-1.2085 0.37756,0.37756 -1.30637,1.66575 -2.12756,2.19548 -2.12756,1.37244 z m 32.87244,-1.37244 c -1.24387,-1.58606 -1.2085,-1.62143 0.37756,-0.37756 0.9625,0.75485 1.75,1.54235 1.75,1.75 0,0.82304 -0.82119,0.29331 -2.12756,-1.37244 z m 5.12756,-14.62756 c 0,-0.20765 0.7875,-0.99515 1.75,-1.75 1.58606,-1.24387 1.62143,-1.2085 0.37756,0.37756 -1.30637,1.66575 -2.12756,2.19548 -2.12756,1.37244 z m -44.12756,-2.37244 c -1.24387,-1.58606 -1.2085,-1.62143 0.37756,-0.37756 0.9625,0.75485 1.75,1.54235 1.75,1.75 0,0.82304 -0.82119,0.29331 -2.12756,-1.37244 z m -64.999999,-7 c -1.243871,-1.58606 -1.208501,-1.62143 0.377555,-0.37756 1.665748,1.30637 2.195479,2.12756 1.372445,2.12756 -0.207656,0 -0.995156,-0.7875 -1.75,-1.75 z m 87.940059,1.06689 c 0.72187,-0.28887 1.58437,-0.25335 1.91667,0.0789 0.33229,0.33229 -0.25834,0.56864 -1.3125,0.52522 -1.16495,-0.048 -1.4019,-0.28494 -0.60417,-0.60416 z m 87.1875,0.30555 c 0,-0.20765 0.7875,-0.99515 1.75,-1.75 1.58606,-1.24387 1.62143,-1.2085 0.37756,0.37756 -1.30637,1.66575 -2.12756,2.19548 -2.12756,1.37244 z m -117.12756,-2.37244 c -1.24387,-1.58606 -1.2085,-1.62143 0.37756,-0.37756 0.9625,0.75485 1.75,1.54235 1.75,1.75 0,0.82304 -0.82119,0.29331 -2.12756,-1.37244 z m 22.12756,-2.75 c -2.42903,-2.475 -4.19142,-4.5 -3.91642,-4.5 0.275,0 2.48739,2.025 4.91642,4.5 2.42903,2.475 4.19142,4.5 3.91642,4.5 -0.275,0 -2.48739,-2.025 -4.91642,-4.5 z m 15.95821,0.25 c 2.45201,-2.6125 4.58951,-4.75 4.75,-4.75 0.75088,0 -0.043,0.89783 -4.45821,5.04179 l -4.75,4.45821 z m 21.04179,3.87244 c 0,-0.20765 0.7875,-0.99515 1.75,-1.75 1.58606,-1.24387 1.62143,-1.2085 0.37756,0.37756 -1.30637,1.66575 -2.12756,2.19548 -2.12756,1.37244 z M 75.456173,611.7939 c 0.04798,-1.16495 0.284941,-1.4019 0.604167,-0.60417 0.288871,0.72187 0.253344,1.58438 -0.07895,1.91667 -0.332292,0.33229 -0.568641,-0.25834 -0.52522,-1.3125 z m 182.000007,0 c 0.048,-1.16495 0.28494,-1.4019 0.60416,-0.60417 0.28887,0.72187 0.25335,1.58438 -0.0789,1.91667 -0.3323,0.33229 -0.56864,-0.25834 -0.52522,-1.3125 z m -128.20651,-3.16667 c -1.24387,-1.58606 -1.2085,-1.62143 0.37756,-0.37756 1.66575,1.30637 2.19548,2.12756 1.37244,2.12756 -0.20765,0 -0.99515,-0.7875 -1.75,-1.75 z m 73.12756,1.37244 c 0,-0.20765 0.7875,-0.99515 1.75,-1.75 1.58606,-1.24387 1.62143,-1.2085 0.37756,0.37756 -1.30637,1.66575 -2.12756,2.19548 -2.12756,1.37244 z m -53.07569,-6.37244 -2.42431,-2.75 2.75,2.42431 c 2.57029,2.26589 3.20859,3.07569 2.42431,3.07569 -0.17912,0 -1.41662,-1.2375 -2.75,-2.75 z m 34.07569,0.25 c 1.29175,-1.375 2.57363,-2.5 2.84863,-2.5 0.275,0 -0.55688,1.125 -1.84863,2.5 -1.29175,1.375 -2.57363,2.5 -2.84863,2.5 -0.275,0 0.55688,-1.125 1.84863,-2.5 z M 80.377226,602.99967 c 0,-0.20765 0.7875,-0.99515 1.75,-1.75 1.586056,-1.24387 1.621426,-1.2085 0.377555,0.37756 -1.306369,1.66575 -2.127555,2.19548 -2.127555,1.37244 z m 170.872444,-1.37244 c -1.24387,-1.58606 -1.2085,-1.62143 0.37756,-0.37756 0.9625,0.75485 1.75,1.54235 1.75,1.75 0,0.82304 -0.82119,0.29331 -2.12756,-1.37244 z m -130,-2 c -1.24387,-1.58606 -1.2085,-1.62143 0.37756,-0.37756 0.9625,0.75485 1.75,1.54235 1.75,1.75 0,0.82304 -0.82119,0.29331 -2.12756,-1.37244 z m 20.56465,-4.5 -2.93709,-3.25 3.25,2.93709 c 1.7875,1.6154 3.25,3.0779 3.25,3.25 0,0.77256 -0.82513,0.0924 -3.56291,-2.93709 z m 46.56291,2.93709 c 0,-0.1721 1.4625,-1.6346 3.25,-3.25 l 3.25,-2.93709 -2.93709,3.25 c -2.73778,3.02946 -3.56291,3.70965 -3.56291,2.93709 z M 55.989056,595.55817 c -0.278413,-0.45048 0.82003,-0.6244 2.440983,-0.3865 1.620953,0.23791 2.947187,0.60648 2.947187,0.81906 0,0.76198 -4.892655,0.3692 -5.38817,-0.43256 z m 216.388174,0.43256 c 0,-0.21258 1.32623,-0.58115 2.94719,-0.81906 1.62095,-0.2379 2.71939,-0.064 2.44098,0.3865 -0.49551,0.80176 -5.38817,1.19454 -5.38817,0.43256 z M 87.377226,594.99967 c 0,-0.20765 0.7875,-0.99515 1.75,-1.75 1.586056,-1.24387 1.621426,-1.2085 0.377555,0.37756 -1.306369,1.66575 -2.127555,2.19548 -2.127555,1.37244 z m 156.872444,-1.37244 c -1.24387,-1.58606 -1.2085,-1.62143 0.37756,-0.37756 0.9625,0.75485 1.75,1.54235 1.75,1.75 0,0.82304 -0.82119,0.29331 -2.12756,-1.37244 z m -130,-2 c -1.24387,-1.58606 -1.2085,-1.62143 0.37756,-0.37756 1.66575,1.30637 2.19548,2.12756 1.37244,2.12756 -0.20765,0 -0.99515,-0.7875 -1.75,-1.75 z m 103.12756,1.37244 c 0,-0.20765 0.7875,-0.99515 1.75,-1.75 1.58606,-1.24387 1.62143,-1.2085 0.37756,0.37756 -1.30637,1.66575 -2.12756,2.19548 -2.12756,1.37244 z M 68.377226,588.87723 c 1.291745,-1.375 2.573628,-2.5 2.848628,-2.5 0.275,0 -0.556883,1.125 -1.848628,2.5 -1.291745,1.375 -2.573628,2.5 -2.848628,2.5 -0.275,0 0.556883,-1.125 1.848628,-2.5 z m 195.924314,-0.25 -2.42431,-2.75 2.75,2.42431 c 2.57029,2.26589 3.20859,3.07569 2.42431,3.07569 -0.17912,0 -1.41662,-1.2375 -2.75,-2.75 z m 18.07569,0.75 c 0.5887,-1.1 1.29537,-2 1.57037,-2 0.275,0 0.0183,0.9 -0.57037,2 -0.5887,1.1 -1.29537,2 -1.57037,2 -0.275,0 -0.0183,-0.9 0.57037,-2 z m -87,0.68709 c 0,-0.1721 1.4625,-1.6346 3.25,-3.25 l 3.25,-2.93709 -2.93709,3.25 c -2.73778,3.02946 -3.56291,3.70965 -3.56291,2.93709 z m -61.07569,-3.43709 -2.42431,-2.75 2.75,2.42431 c 2.57029,2.26589 3.20859,3.07569 2.42431,3.07569 -0.17912,0 -1.41662,-1.2375 -2.75,-2.75 z m -58.924314,-5.75 c 1.291745,-1.375 2.573628,-2.5 2.848628,-2.5 0.275,0 -0.556883,1.125 -1.848628,2.5 -1.291745,1.375 -2.573628,2.5 -2.848628,2.5 -0.275,0 0.556883,-1.125 1.848628,-2.5 z m 181.437094,-0.75 -2.93709,-3.25 3.25,2.93709 c 3.02946,2.73778 3.70965,3.56291 2.93709,3.56291 -0.1721,0 -1.6346,-1.4625 -3.25,-3.25 z m -130,-2 -2.93709,-3.25 3.25,2.93709 c 1.7875,1.6154 3.25,3.0779 3.25,3.25 0,0.77256 -0.82513,0.0924 -3.56291,-2.93709 z m 78.56291,0.75 c 1.29175,-1.375 2.57363,-2.5 2.84863,-2.5 0.275,0 -0.55688,1.125 -1.84863,2.5 -1.29175,1.375 -2.57363,2.5 -2.84863,2.5 -0.275,0 0.55688,-1.125 1.84863,-2.5 z m -123.000004,-6 c 1.291745,-1.375 2.573628,-2.5 2.848628,-2.5 0.275,0 -0.556883,1.125 -1.848628,2.5 -1.291745,1.375 -2.573628,2.5 -2.848628,2.5 -0.275,0 0.556883,-1.125 1.848628,-2.5 z m 167.404994,-0.75 -1.90499,-2.25 2.25,1.90499 c 2.11444,1.79022 2.70524,2.59501 1.90499,2.59501 -0.18976,0 -1.20226,-1.0125 -2.25,-2.25 z m -209.404994,-0.75 c -0.588702,-1.1 -0.845368,-2 -0.570368,-2 0.275,0 0.981666,0.9 1.570368,2 0.588702,1.1 0.845368,2 0.570368,2 -0.275,0 -0.981666,-0.9 -1.570368,-2 z m 80.872444,0.25 c -1.24387,-1.58606 -1.2085,-1.62143 0.37756,-0.37756 1.66575,1.30637 2.19548,2.12756 1.37244,2.12756 -0.20765,0 -0.99515,-0.7875 -1.75,-1.75 z m 89.12756,1.37244 c 0,-0.20765 0.7875,-0.99515 1.75,-1.75 1.58606,-1.24387 1.62143,-1.2085 0.37756,0.37756 -1.30637,1.66575 -2.12756,2.19548 -2.12756,1.37244 z m 82,-1.62244 c 0.5887,-1.1 1.29537,-2 1.57037,-2 0.275,0 0.0183,0.9 -0.57037,2 -0.5887,1.1 -1.29537,2 -1.57037,2 -0.275,0 -0.0183,-0.9 0.57037,-2 z m -173.84211,-7 c 0,-1.375 0.22698,-1.9375 0.50439,-1.25 0.27741,0.6875 0.27741,1.8125 0,2.5 -0.27741,0.6875 -0.50439,0.125 -0.50439,-1.25 z m 96,0 c 0,-1.375 0.22698,-1.9375 0.50439,-1.25 0.27741,0.6875 0.27741,1.8125 0,2.5 -0.27741,0.6875 -0.50439,0.125 -0.50439,-1.25 z m -179.157894,-2 c -0.588702,-1.1 -0.845368,-2 -0.570368,-2 0.275,0 0.981666,0.9 1.570368,2 0.588702,1.1 0.845368,2 0.570368,2 -0.275,0 -0.981666,-0.9 -1.570368,-2 z m 262.000004,0 c 0.5887,-1.1 1.29537,-2 1.57037,-2 0.275,0 0.0183,0.9 -0.57037,2 -0.5887,1.1 -1.29537,2 -1.57037,2 -0.275,0 -0.0183,-0.9 0.57037,-2 z m -50,-1.94098 c 0,-0.51754 0.44485,-1.21592 0.98855,-1.55194 0.56686,-0.35034 0.7345,0.0511 0.39301,0.94098 -0.66479,1.73242 -1.38156,2.04939 -1.38156,0.61096 z m -124,-5.55902 c 1.29175,-1.375 2.57363,-2.5 2.84863,-2.5 0.275,0 -0.55688,1.125 -1.84863,2.5 -1.29175,1.375 -2.57363,2.5 -2.84863,2.5 -0.275,0 0.55688,-1.125 1.84863,-2.5 z m 85.92431,-0.25 -2.42431,-2.75 2.75,2.42431 c 2.57029,2.26589 3.20859,3.07569 2.42431,3.07569 -0.17912,0 -1.41662,-1.2375 -2.75,-2.75 z m 40.07569,2.43709 c 0,-0.1721 1.4625,-1.6346 3.25,-3.25 l 3.25,-2.93709 -2.93709,3.25 c -2.73778,3.02946 -3.56291,3.70965 -3.56291,2.93709 z m -169.07569,-3.43709 -2.424314,-2.75 2.75,2.42431 c 2.570289,2.26589 3.208588,3.07569 2.424314,3.07569 -0.179127,0 -1.416627,-1.2375 -2.75,-2.75 z m -49.924314,-0.25 c -0.588702,-1.1 -0.845368,-2 -0.570368,-2 0.275,0 0.981666,0.9 1.570368,2 0.588702,1.1 0.845368,2 0.570368,2 -0.275,0 -0.981666,-0.9 -1.570368,-2 z m 272.000004,0 c 0.5887,-1.1 1.29537,-2 1.57037,-2 0.275,0 0.0183,0.9 -0.57037,2 -0.5887,1.1 -1.29537,2 -1.57037,2 -0.275,0 -0.0183,-0.9 0.57037,-2 z m -175,-3.31291 c 0,-0.1721 1.4625,-1.6346 3.25,-3.25 l 3.25,-2.93709 -2.93709,3.25 c -2.73778,3.02946 -3.56291,3.70965 -3.56291,2.93709 z m 75.43709,-2.93709 -2.93709,-3.25 3.25,2.93709 c 1.7875,1.6154 3.25,3.0779 3.25,3.25 0,0.77256 -0.82513,0.0924 -3.56291,-2.93709 z m -130.000003,-2 -2.937091,-3.25 3.25,2.93709 c 3.029455,2.73778 3.709652,3.56291 2.937091,3.56291 -0.1721,0 -1.6346,-1.4625 -3.25,-3.25 z m 186.562913,0.75 c 1.29175,-1.375 2.57363,-2.5 2.84863,-2.5 0.275,0 -0.55688,1.125 -1.84863,2.5 -1.29175,1.375 -2.57363,2.5 -2.84863,2.5 -0.275,0 0.55688,-1.125 1.84863,-2.5 z m -234.000004,-1.5 c -0.588702,-1.1 -0.845368,-2 -0.570368,-2 0.275,0 0.981666,0.9 1.570368,2 0.588702,1.1 0.845368,2 0.570368,2 -0.275,0 -0.981666,-0.9 -1.570368,-2 z m 282.000004,0 c 0.5887,-1.1 1.29537,-2 1.57037,-2 0.275,0 0.0183,0.9 -0.57037,2 -0.5887,1.1 -1.29537,2 -1.57037,2 -0.275,0 -0.0183,-0.9 0.57037,-2 z m -212.07569,-2.75 -2.424314,-2.75 2.75,2.42431 c 2.570289,2.26589 3.208588,3.07569 2.424314,3.07569 -0.179127,0 -1.416627,-1.2375 -2.75,-2.75 z m 12.07569,2.37244 c 0,-0.20765 0.7875,-0.99515 1.75,-1.75 1.58606,-1.24387 1.62143,-1.2085 0.37756,0.37756 -1.30637,1.66575 -2.12756,2.19548 -2.12756,1.37244 z m 116.87244,-1.37244 c -1.24387,-1.58606 -1.2085,-1.62143 0.37756,-0.37756 0.9625,0.75485 1.75,1.54235 1.75,1.75 0,0.82304 -0.82119,0.29331 -2.12756,-1.37244 z m 13.12756,-0.75 c 1.29175,-1.375 2.57363,-2.5 2.84863,-2.5 0.275,0 -0.55688,1.125 -1.84863,2.5 -1.29175,1.375 -2.57363,2.5 -2.84863,2.5 -0.275,0 0.55688,-1.125 1.84863,-2.5 z m -100,-3 c 1.29175,-1.375 2.57363,-2.5 2.84863,-2.5 0.275,0 -0.55688,1.125 -1.84863,2.5 -1.29175,1.375 -2.57363,2.5 -2.84863,2.5 -0.275,0 0.55688,-1.125 1.84863,-2.5 z m 57.92431,-0.25 -2.42431,-2.75 2.75,2.42431 c 2.57029,2.26589 3.20859,3.07569 2.42431,3.07569 -0.17912,0 -1.41662,-1.2375 -2.75,-2.75 z m 69.07569,1.43709 c 0,-0.1721 1.4625,-1.6346 3.25,-3.25 l 3.25,-2.93709 -2.93709,3.25 c -2.73778,3.02946 -3.56291,3.70965 -3.56291,2.93709 z m -199.07569,-3.43709 -2.424314,-2.75 2.75,2.42431 c 2.570289,2.26589 3.208588,3.07569 2.424314,3.07569 -0.179127,0 -1.416627,-1.2375 -2.75,-2.75 z m 50.57569,-2.25 c 0.99549,-1.1 2.03498,-2 2.30998,-2 0.275,0 -0.31449,0.9 -1.30998,2 -0.99549,1.1 -2.03498,2 -2.30998,2 -0.275,0 0.31449,-0.9 1.30998,-2 z m 100.90499,-0.25 -1.90499,-2.25 2.25,1.90499 c 1.2375,1.04774 2.25,2.06024 2.25,2.25 0,0.80025 -0.80479,0.20945 -2.59501,-1.90499 z m -130.000006,-2 -1.904988,-2.25 2.25,1.90499 c 2.114445,1.79022 2.705241,2.59501 1.904988,2.59501 -0.189757,0 -1.202257,-1.0125 -2.25,-2.25 z m 159.095016,0.25 c 0.99549,-1.1 2.03498,-2 2.30998,-2 0.275,0 -0.31449,0.9 -1.30998,2 -0.99549,1.1 -2.03498,2 -2.30998,2 -0.275,0 0.31449,-0.9 1.30998,-2 z m -103.5,0.68709 c 0,-0.1721 1.4625,-1.6346 3.25,-3.25 l 3.25,-2.93709 -2.93709,3.25 c -2.73778,3.02946 -3.56291,3.70965 -3.56291,2.93709 z m 45.43709,-2.93709 -2.93709,-3.25 3.25,2.93709 c 1.7875,1.6154 3.25,3.0779 3.25,3.25 0,0.77256 -0.82513,0.0924 -3.56291,-2.93709 z m -130.000003,-2 -2.937091,-3.25 3.25,2.93709 c 3.029455,2.73778 3.709652,3.56291 2.937091,3.56291 -0.1721,0 -1.6346,-1.4625 -3.25,-3.25 z m 216.562913,0.75 c 1.29175,-1.375 2.57363,-2.5 2.84863,-2.5 0.275,0 -0.55688,1.125 -1.84863,2.5 -1.29175,1.375 -2.57363,2.5 -2.84863,2.5 -0.275,0 0.55688,-1.125 1.84863,-2.5 z m -152,-1.87756 c 0,-0.20765 0.7875,-0.99515 1.75,-1.75 1.58606,-1.24387 1.62143,-1.2085 0.37756,0.37756 -1.30637,1.66575 -2.12756,2.19548 -2.12756,1.37244 z m 86.87244,-1.37244 c -1.24387,-1.58606 -1.2085,-1.62143 0.37756,-0.37756 0.9625,0.75485 1.75,1.54235 1.75,1.75 0,0.82304 -0.82119,0.29331 -2.12756,-1.37244 z m 43.62756,-1.25 c 0.99549,-1.1 2.03498,-2 2.30998,-2 0.275,0 -0.31449,0.9 -1.30998,2 -0.99549,1.1 -2.03498,2 -2.30998,2 -0.275,0 0.31449,-0.9 1.30998,-2 z m -173.627559,-0.75 c -1.243871,-1.58606 -1.208501,-1.62143 0.377555,-0.37756 1.665748,1.30637 2.195479,2.12756 1.372445,2.12756 -0.207656,0 -0.995156,-0.7875 -1.75,-1.75 z m 73.127559,-1.75 c 1.29175,-1.375 2.57363,-2.5 2.84863,-2.5 0.275,0 -0.55688,1.125 -1.84863,2.5 -1.29175,1.375 -2.57363,2.5 -2.84863,2.5 -0.275,0 0.55688,-1.125 1.84863,-2.5 z m 27.92431,-0.25 -2.42431,-2.75 2.75,2.42431 c 2.57029,2.26589 3.20859,3.07569 2.42431,3.07569 -0.17912,0 -1.41662,-1.2375 -2.75,-2.75 z m -129.487223,-1.5 -2.937091,-3.25 3.25,2.93709 c 3.029455,2.73778 3.709652,3.56291 2.937091,3.56291 -0.1721,0 -1.6346,-1.4625 -3.25,-3.25 z m 228.562913,2.93709 c 0,-0.1721 1.4625,-1.6346 3.25,-3.25 l 3.25,-2.93709 -2.93709,3.25 c -2.73778,3.02946 -3.56291,3.70965 -3.56291,2.93709 z m -148.5,-5.68709 c 0.99549,-1.1 2.03498,-2 2.30998,-2 0.275,0 -0.31449,0.9 -1.30998,2 -0.99549,1.1 -2.03498,2 -2.30998,2 -0.275,0 0.31449,-0.9 1.30998,-2 z m 70.90499,-0.25 -1.90499,-2.25 2.25,1.90499 c 1.2375,1.04774 2.25,2.06024 2.25,2.25 0,0.80025 -0.80479,0.20945 -2.59501,-1.90499 z m -171.404994,-2.25 c 1.865783,-1.925 3.617334,-3.5 3.892334,-3.5 0.275,0 -1.026551,1.575 -2.892334,3.5 -1.865783,1.925 -3.617334,3.5 -3.892334,3.5 -0.275,0 1.026551,-1.575 2.892334,-3.5 z m 271.946174,-0.25 -3.44617,-3.75 3.75,3.44617 c 2.0625,1.89539 3.75,3.58289 3.75,3.75 0,0.76362 -0.84622,0.0442 -4.05383,-3.44617 z m -230.073729,1 c -1.243871,-1.58606 -1.208501,-1.62143 0.377555,-0.37756 1.665748,1.30637 2.195479,2.12756 1.372445,2.12756 -0.207656,0 -0.995156,-0.7875 -1.75,-1.75 z m 187.127559,1.37244 c 0,-0.20765 0.7875,-0.99515 1.75,-1.75 1.58606,-1.24387 1.62143,-1.2085 0.37756,0.37756 -1.30637,1.66575 -2.12756,2.19548 -2.12756,1.37244 z m -100,-3.12244 c 1.29175,-1.375 2.57363,-2.5 2.84863,-2.5 0.275,0 -0.55688,1.125 -1.84863,2.5 -1.29175,1.375 -2.57363,2.5 -2.84863,2.5 -0.275,0 0.55688,-1.125 1.84863,-2.5 z m 13.92431,-0.25 -2.42431,-2.75 2.75,2.42431 c 2.57029,2.26589 3.20859,3.07569 2.42431,3.07569 -0.17912,0 -1.41662,-1.2375 -2.75,-2.75 z m -35.42431,-4.25 c 0.99549,-1.1 2.03498,-2 2.30998,-2 0.275,0 -0.31449,0.9 -1.30998,2 -0.99549,1.1 -2.03498,2 -2.30998,2 -0.275,0 0.31449,-0.9 1.30998,-2 z m 56.37244,-0.75 c -1.24387,-1.58606 -1.2085,-1.62143 0.37756,-0.37756 0.9625,0.75485 1.75,1.54235 1.75,1.75 0,0.82304 -0.82119,0.29331 -2.12756,-1.37244 z m -129.467456,-1.5 -1.904988,-2.25 2.25,1.90499 c 2.114445,1.79022 2.705241,2.59501 1.904988,2.59501 -0.189757,0 -1.202257,-1.0125 -2.25,-2.25 z m 203.095016,0.25 c 0.99549,-1.1 2.03498,-2 2.30998,-2 0.275,0 -0.31449,0.9 -1.30998,2 -0.99549,1.1 -2.03498,2 -2.30998,2 -0.275,0 0.31449,-0.9 1.30998,-2 z m -123.5,-5.37756 c 0,-0.20765 0.7875,-0.99515 1.75,-1.75 1.58606,-1.24387 1.62143,-1.2085 0.37756,0.37756 -1.30637,1.66575 -2.12756,2.19548 -2.12756,1.37244 z m 42.40499,-1.87244 -1.90499,-2.25 2.25,1.90499 c 2.11444,1.79022 2.70524,2.59501 1.90499,2.59501 -0.18976,0 -1.20226,-1.0125 -2.25,-2.25 z m -37.32604,-6.33333 c 0.048,-1.16495 0.28494,-1.4019 0.60416,-0.60417 0.28887,0.72187 0.25335,1.58438 -0.0789,1.91667 -0.3323,0.33229 -0.56864,-0.25834 -0.52522,-1.3125 z m 174,0 c 0.048,-1.16495 0.28494,-1.4019 0.60416,-0.60417 0.28887,0.72187 0.25335,1.58438 -0.0789,1.91667 -0.33229,0.33229 -0.56864,-0.25834 -0.52522,-1.3125 z M 21.572175,491.87723 c 0.02038,-1.65 0.244498,-2.20394 0.498042,-1.23097 0.253543,0.97297 0.236869,2.32297 -0.03705,3 -0.273927,0.67703 -0.481372,-0.11903 -0.460992,-1.76903 z m 290.000005,0 c 0.0204,-1.65 0.2445,-2.20394 0.49804,-1.23097 0.25354,0.97297 0.23687,2.32297 -0.0371,3 -0.27393,0.67703 -0.48137,-0.11903 -0.46099,-1.76903 z m -162.116,-2.08333 c 0.048,-1.16495 0.28494,-1.4019 0.60416,-0.60417 0.28887,0.72187 0.25335,1.58438 -0.0789,1.91667 -0.3323,0.33229 -0.56864,-0.25834 -0.52522,-1.3125 z m -141.0000062,-2 c 0.047984,-1.16495 0.2849403,-1.4019 0.6041666,-0.60417 0.2888706,0.72187 0.2533443,1.58438 -0.078947,1.91667 -0.3322917,0.33229 -0.5686404,-0.25834 -0.5252196,-1.3125 z m 316.0000062,0 c 0.048,-1.16495 0.28494,-1.4019 0.60416,-0.60417 0.28887,0.72187 0.25335,1.58438 -0.0789,1.91667 -0.33229,0.33229 -0.56864,-0.25834 -0.52522,-1.3125 z m -49.20651,-3.16667 c -1.24387,-1.58606 -1.2085,-1.62143 0.37756,-0.37756 1.66575,1.30637 2.19548,2.12756 1.37244,2.12756 -0.20765,0 -0.99515,-0.7875 -1.75,-1.75 z m -129.46745,-1.5 -1.90499,-2.25 2.25,1.90499 c 2.11444,1.79022 2.70524,2.59501 1.90499,2.59501 -0.18976,0 -1.20226,-1.0125 -2.25,-2.25 z m 39.59501,1.87244 c 0,-0.20765 0.7875,-0.99515 1.75,-1.75 1.58606,-1.24387 1.62143,-1.2085 0.37756,0.37756 -1.30637,1.66575 -2.12756,2.19548 -2.12756,1.37244 z M 16.249671,481.62723 c -1.243871,-1.58606 -1.208501,-1.62143 0.377555,-0.37756 0.9625,0.75485 1.75,1.54235 1.75,1.75 0,0.82304 -0.821186,0.29331 -2.127555,-1.37244 z m 299.127559,1.37244 c 0,-0.20765 0.7875,-0.99515 1.75,-1.75 1.58606,-1.24387 1.62143,-1.2085 0.37756,0.37756 -1.30637,1.66575 -2.12756,2.19548 -2.12756,1.37244 z M 63.877226,477.37723 c 0.995486,-1.1 2.034975,-2 2.309975,-2 0.275,0 -0.314489,0.9 -1.309975,2 -0.995486,1.1 -2.034975,2 -2.309975,2 -0.275,0 0.314489,-0.9 1.309975,-2 z m 204.904994,-0.25 -1.90499,-2.25 2.25,1.90499 c 2.11444,1.79022 2.70524,2.59501 1.90499,2.59501 -0.18976,0 -1.20226,-1.0125 -2.25,-2.25 z m -130,-2 -1.90499,-2.25 2.25,1.90499 c 2.11444,1.79022 2.70524,2.59501 1.90499,2.59501 -0.18976,0 -1.20226,-1.0125 -2.25,-2.25 z m 55.09501,0.25 c 0.99549,-1.1 2.03498,-2 2.30998,-2 0.275,0 -0.31449,0.9 -1.30998,2 -0.99549,1.1 -2.03498,2 -2.30998,2 -0.275,0 0.31449,-0.9 1.30998,-2 z M 70.377226,469.99967 c 0,-0.20765 0.7875,-0.99515 1.75,-1.75 1.586056,-1.24387 1.621426,-1.2085 0.377555,0.37756 -1.306369,1.66575 -2.127555,2.19548 -2.127555,1.37244 z m 190.872444,-1.37244 c -1.24387,-1.58606 -1.2085,-1.62143 0.37756,-0.37756 0.9625,0.75485 1.75,1.54235 1.75,1.75 0,0.82304 -0.82119,0.29331 -2.12756,-1.37244 z m -130,-2 c -1.24387,-1.58606 -1.2085,-1.62143 0.37756,-0.37756 0.9625,0.75485 1.75,1.54235 1.75,1.75 0,0.82304 -0.82119,0.29331 -2.12756,-1.37244 z m 69.12756,1.37244 c 0,-0.20765 0.7875,-0.99515 1.75,-1.75 1.58606,-1.24387 1.62143,-1.2085 0.37756,0.37756 -1.30637,1.66575 -2.12756,2.19548 -2.12756,1.37244 z M 78.877226,460.37723 c 0.995486,-1.1 2.034975,-2 2.309975,-2 0.275,0 -0.314489,0.9 -1.309975,2 -0.995486,1.1 -2.034975,2 -2.309975,2 -0.275,0 0.314489,-0.9 1.309975,-2 z m 174.904994,-0.25 -1.90499,-2.25 2.25,1.90499 c 2.11444,1.79022 2.70524,2.59501 1.90499,2.59501 -0.18976,0 -1.20226,-1.0125 -2.25,-2.25 z m -130,-2 -1.90499,-2.25 2.25,1.90499 c 2.11444,1.79022 2.70524,2.59501 1.90499,2.59501 -0.18976,0 -1.20226,-1.0125 -2.25,-2.25 z m 85.09501,0.25 c 0.99549,-1.1 2.03498,-2 2.30998,-2 0.275,0 -0.31449,0.9 -1.30998,2 -0.99549,1.1 -2.03498,2 -2.30998,2 -0.275,0 0.31449,-0.9 1.30998,-2 z M 85.377226,452.99967 c 0,-0.20765 0.7875,-0.99515 1.75,-1.75 1.586056,-1.24387 1.621426,-1.2085 0.377555,0.37756 -1.306369,1.66575 -2.127555,2.19548 -2.127555,1.37244 z m 160.872444,-1.37244 c -1.24387,-1.58606 -1.2085,-1.62143 0.37756,-0.37756 0.9625,0.75485 1.75,1.54235 1.75,1.75 0,0.82304 -0.82119,0.29331 -2.12756,-1.37244 z m -30.37244,-1.25 c 0.99549,-1.1 2.03498,-2 2.30998,-2 0.275,0 -0.31449,0.9 -1.30998,2 -0.99549,1.1 -2.03498,2 -2.30998,2 -0.275,0 0.31449,-0.9 1.30998,-2 z m -99.62756,-0.75 c -1.24387,-1.58606 -1.2085,-1.62143 0.37756,-0.37756 0.9625,0.75485 1.75,1.54235 1.75,1.75 0,0.82304 -0.82119,0.29331 -2.12756,-1.37244 z m -22.372444,-6.25 c 0.995486,-1.1 2.034975,-2 2.309975,-2 0.275,0 -0.314489,0.9 -1.309975,2 -0.995486,1.1 -2.034975,2 -2.309975,2 -0.275,0 0.314489,-0.9 1.309975,-2 z m 144.904994,-0.25 -1.90499,-2.25 2.25,1.90499 c 2.11444,1.79022 2.70524,2.59501 1.90499,2.59501 -0.18976,0 -1.20226,-1.0125 -2.25,-2.25 z m -130,-2 -1.90499,-2.25 2.25,1.90499 c 2.11444,1.79022 2.70524,2.59501 1.90499,2.59501 -0.18976,0 -1.20226,-1.0125 -2.25,-2.25 z m 115.09501,0.25 c 0.99549,-1.1 2.03498,-2 2.30998,-2 0.275,0 -0.31449,0.9 -1.30998,2 -0.99549,1.1 -2.03498,2 -2.30998,2 -0.275,0 0.31449,-0.9 1.30998,-2 z"
       style="fill:#fd9d58" />
    <path
       id="path3774"
       d="m 32.496273,469.62723 c -1.601879,-1.5125 -7.809373,-8.375 -13.794432,-15.25 C 4.0633062,437.56204 3.0705724,435.17457 3.5643553,417.97245 3.8604953,407.6557 4.3579134,403.95989 5.9087385,400.5537 8.4066847,395.06728 31.972214,367.91743 35.607815,366.33739 c 1.501824,-0.6527 3.845751,-0.90683 5.208728,-0.56475 1.588681,0.39874 10.030314,9.22986 23.519412,24.60458 20.525773,23.39504 21.041271,24.08975 21.041271,28.35645 0,5.18918 0.354785,4.68834 -18.873629,26.64356 -21.820908,24.91536 -23.969356,27 -27.826434,27 -2.192781,0 -4.22687,-0.90501 -6.18089,-2.75 z m 129.119137,1 c -4.93081,-4.35061 -40.38907,-45.51668 -41.32422,-47.97629 -0.57565,-1.5141 -0.78924,-4.10758 -0.47464,-5.7633 0.73978,-3.89334 40.91138,-49.55806 44.79949,-50.92543 1.77891,-0.62561 3.49441,-0.57193 5.09989,0.15957 2.75415,1.25488 41.07731,44.24331 43.34975,48.62693 2.93809,5.66769 1.52268,7.99878 -19.30105,31.78777 -10.75581,12.28741 -20.46793,23.12825 -21.58249,24.09075 -1.11456,0.9625 -3.50177,1.75 -5.30491,1.75 -1.80314,0 -4.17096,-0.7875 -5.26182,-1.75 z m 125.56994,-3 c -12.13132,-12.48161 -38.67014,-43.74788 -39.1169,-46.08492 -0.27338,-1.4301 0.0218,-4.06585 0.65586,-5.85721 1.68313,-4.75492 41.12718,-49.13781 44.39983,-49.9592 3.95855,-0.99353 6.68288,1.0705 18.04934,13.67469 18.16727,20.14557 19.66551,23.50749 19.01997,42.67905 -0.49672,14.75191 -1.3411,16.52882 -15.58518,32.79759 -14.25767,16.2843 -15.6147,17.5 -19.53441,17.5 -2.58859,0 -4.23587,-0.9919 -7.88851,-4.75 z M 100.60173,399.61141 c -1.475031,-0.2463 -9.390027,-8.46896 -22.500002,-23.37458 -11.123476,-12.64704 -20.771056,-23.97674 -21.439067,-25.17711 -1.753668,-3.15122 -1.547821,-6.74742 0.582849,-10.18249 4.061714,-6.54831 41.071488,-47.26807 43.52001,-47.88261 1.37341,-0.3447 3.60865,-0.12027 4.96721,0.49873 3.10992,1.41697 41.68698,45.01604 43.44716,49.10316 0.74554,1.73113 1.02518,4.28805 0.65388,5.97861 -0.84555,3.84974 -40.3825,48.88765 -44.20829,50.35918 -1.51154,0.5814 -3.77223,0.88609 -5.02375,0.67711 z m 126.98131,-0.98011 c -4.56755,-2.43211 -42.8435,-46.32801 -43.66733,-50.07889 -0.36602,-1.66645 -0.0817,-4.2354 0.65886,-5.95398 1.77763,-4.12501 40.27489,-47.6597 43.40687,-49.08673 1.38072,-0.62909 3.63409,-0.86178 5.00749,-0.51708 2.44853,0.61454 39.4583,41.3343 43.52002,47.88261 2.13573,3.44323 2.33593,7.03113 0.56964,10.20894 -1.73809,3.12706 -41.66412,48.29106 -42.69042,48.29106 -0.46605,0 -1.44667,0.22683 -2.17915,0.50407 -0.73249,0.27724 -2.81417,-0.28526 -4.62598,-1.25 z m 88.33515,-43.47725 c -3.85052,-4.49847 -4.90921,-7.14288 -4.37384,-10.92511 0.22084,-1.56015 0.99574,-2.35171 2.30223,-2.35171 1.40685,0 2.90638,1.81012 5.25,6.33737 5.57219,10.76404 3.6631,14.93219 -3.17839,6.93945 z M 13.540397,351.4953 c 0.322423,-5.70609 0.847943,-7.57363 2.633709,-9.35939 2.941681,-2.94169 5.585313,-1.4241 6.00481,3.44709 0.233147,2.70728 -0.448457,4.48404 -3,7.82021 -5.186525,6.78145 -6.11182,6.46835 -5.638519,-1.90791 z"
       style="fill:#fdf000" />
    <path
       id="path3772"
       d="m 44.877226,469.37723 c 0.995486,-1.1 2.034975,-2 2.309975,-2 0.275,0 -0.314489,0.9 -1.309975,2 -0.995486,1.1 -2.034975,2 -2.309975,2 -0.275,0 0.314489,-0.9 1.309975,-2 z m 242.904994,-0.25 -1.90499,-2.25 2.25,1.90499 c 2.11444,1.79022 2.70524,2.59501 1.90499,2.59501 -0.18976,0 -1.20226,-1.0125 -2.25,-2.25 z m -130.53255,-2.5 c -1.24387,-1.58606 -1.2085,-1.62143 0.37756,-0.37756 0.9625,0.75485 1.75,1.54235 1.75,1.75 0,0.82304 -0.82119,0.29331 -2.12756,-1.37244 z m -129.999999,-2 c -1.243871,-1.58606 -1.208501,-1.62143 0.377555,-0.37756 0.9625,0.75485 1.75,1.54235 1.75,1.75 0,0.82304 -0.821186,0.29331 -2.127555,-1.37244 z m 277.127559,1.37244 c 0,-0.20765 0.7875,-0.99515 1.75,-1.75 1.58606,-1.24387 1.62143,-1.2085 0.37756,0.37756 -1.30637,1.66575 -2.12756,2.19548 -2.12756,1.37244 z m -155.12756,-8.37244 c -1.24387,-1.58606 -1.2085,-1.62143 0.37756,-0.37756 0.9625,0.75485 1.75,1.54235 1.75,1.75 0,0.82304 -0.82119,0.29331 -2.12756,-1.37244 z m 33.12756,1.37244 c 0,-0.20765 0.7875,-0.99515 1.75,-1.75 1.58606,-1.24387 1.62143,-1.2085 0.37756,0.37756 -1.30637,1.66575 -2.12756,2.19548 -2.12756,1.37244 z m 129,-1 c 0,-0.20765 0.7875,-0.99515 1.75,-1.75 1.58606,-1.24387 1.62143,-1.2085 0.37756,0.37756 -1.30637,1.66575 -2.12756,2.19548 -2.12756,1.37244 z m -252.000004,-5 c 0,-0.20765 0.7875,-0.99515 1.75,-1.75 1.586056,-1.24387 1.621426,-1.2085 0.377555,0.37756 -1.306369,1.66575 -2.127555,2.19548 -2.127555,1.37244 z m 82.872444,-3.37244 c -1.24387,-1.58606 -1.2085,-1.62143 0.37756,-0.37756 0.9625,0.75485 1.75,1.54235 1.75,1.75 0,0.82304 -0.82119,0.29331 -2.12756,-1.37244 z m 47.12756,1.37244 c 0,-0.20765 0.7875,-0.99515 1.75,-1.75 1.58606,-1.24387 1.62143,-1.2085 0.37756,0.37756 -1.30637,1.66575 -2.12756,2.19548 -2.12756,1.37244 z M 12.249671,447.62723 c -1.243871,-1.58606 -1.2085,-1.62143 0.377555,-0.37756 0.9625,0.75485 1.75,1.54235 1.75,1.75 0,0.82304 -0.821186,0.29331 -2.127555,-1.37244 z m 62.127555,-11.62756 c 0,-0.20765 0.7875,-0.99515 1.75,-1.75 1.586056,-1.24387 1.621426,-1.2085 0.377555,0.37756 -1.306369,1.66575 -2.127555,2.19548 -2.127555,1.37244 z m 182.872444,-1.37244 c -1.24387,-1.58606 -1.2085,-1.62143 0.37756,-0.37756 1.66575,1.30637 2.19548,2.12756 1.37244,2.12756 -0.20765,0 -0.99515,-0.7875 -1.75,-1.75 z m -130,-2 c -1.24387,-1.58606 -1.2085,-1.62143 0.37756,-0.37756 0.9625,0.75485 1.75,1.54235 1.75,1.75 0,0.82304 -0.82119,0.29331 -2.12756,-1.37244 z m 77.12756,1.37244 c 0,-0.20765 0.7875,-0.99515 1.75,-1.75 1.58606,-1.24387 1.62143,-1.2085 0.37756,0.37756 -1.30637,1.66575 -2.12756,2.19548 -2.12756,1.37244 z m -123.000004,-6 c 0,-0.20765 0.7875,-0.99515 1.75,-1.75 1.586056,-1.24387 1.621426,-1.2085 0.377555,0.37756 -1.306369,1.66575 -2.127555,2.19548 -2.127555,1.37244 z m 4.194949,-9.12244 c 0.02038,-1.65 0.244498,-2.20394 0.498042,-1.23097 0.253543,0.97297 0.236869,2.32297 -0.03705,3 -0.273927,0.67703 -0.481372,-0.11903 -0.460992,-1.76903 z m -6.322504,-11.25 c -1.243871,-1.58606 -1.208501,-1.62143 0.377555,-0.37756 0.9625,0.75485 1.75,1.54235 1.75,1.75 0,0.82304 -0.821186,0.29331 -2.127555,-1.37244 z m 50.127559,-4.62756 c 0,-0.20765 0.7875,-0.99515 1.75,-1.75 1.58606,-1.24387 1.62143,-1.2085 0.37756,0.37756 -1.30637,1.66575 -2.12756,2.19548 -2.12756,1.37244 z m 72.87244,-1.37244 c -1.24387,-1.58606 -1.2085,-1.62143 0.37756,-0.37756 1.66575,1.30637 2.19548,2.12756 1.37244,2.12756 -0.20765,0 -0.99515,-0.7875 -1.75,-1.75 z m -129.999999,-2 c -1.243871,-1.58606 -1.208501,-1.62143 0.377555,-0.37756 0.9625,0.75485 1.75,1.54235 1.75,1.75 0,0.82304 -0.821186,0.29331 -2.127555,-1.37244 z m 187.127559,1.37244 c 0,-0.20765 0.7875,-0.99515 1.75,-1.75 1.58606,-1.24387 1.62143,-1.2085 0.37756,0.37756 -1.30637,1.66575 -2.12756,2.19548 -2.12756,1.37244 z m -148,-7 c 0,-0.20765 0.7875,-0.99515 1.75,-1.75 1.58606,-1.24387 1.62143,-1.2085 0.37756,0.37756 -1.30637,1.66575 -2.12756,2.19548 -2.12756,1.37244 z m 130,-2 c 0,-0.20765 0.7875,-0.99515 1.75,-1.75 1.58606,-1.24387 1.62143,-1.2085 0.37756,0.37756 -1.30637,1.66575 -2.12756,2.19548 -2.12756,1.37244 z m -227.000004,-4 c 0,-0.20765 0.7875,-0.99515 1.75,-1.75 1.586056,-1.24387 1.621426,-1.2085 0.377555,0.37756 -1.306369,1.66575 -2.127555,2.19548 -2.127555,1.37244 z m 130.000004,-2 c 0,-0.20765 0.7875,-0.99515 1.75,-1.75 1.58606,-1.24387 1.62143,-1.2085 0.37756,0.37756 -1.30637,1.66575 -2.12756,2.19548 -2.12756,1.37244 z m 42.87244,-1.37244 c -1.24387,-1.58606 -1.2085,-1.62143 0.37756,-0.37756 0.9625,0.75485 1.75,1.54235 1.75,1.75 0,0.82304 -0.82119,0.29331 -2.12756,-1.37244 z m -67.87244,0.37244 c 0,-0.20765 0.7875,-0.99515 1.75,-1.75 1.58606,-1.24387 1.62143,-1.2085 0.37756,0.37756 -1.30637,1.66575 -2.12756,2.19548 -2.12756,1.37244 z m 92.87244,-1.37244 c -1.24387,-1.58606 -1.2085,-1.62143 0.37756,-0.37756 0.9625,0.75485 1.75,1.54235 1.75,1.75 0,0.82304 -0.82119,0.29331 -2.12756,-1.37244 z m -85.87244,-6.62756 c 0,-0.20765 0.7875,-0.99515 1.75,-1.75 1.58606,-1.24387 1.62143,-1.2085 0.37756,0.37756 -1.30637,1.66575 -2.12756,2.19548 -2.12756,1.37244 z m 78.87244,-1.37244 c -1.24387,-1.58606 -1.2085,-1.62143 0.37756,-0.37756 1.66575,1.30637 2.19548,2.12756 1.37244,2.12756 -0.20765,0 -0.99515,-0.7875 -1.75,-1.75 z m -129.999999,-2 c -1.243871,-1.58606 -1.208501,-1.62143 0.377555,-0.37756 0.9625,0.75485 1.75,1.54235 1.75,1.75 0,0.82304 -0.821186,0.29331 -2.127555,-1.37244 z m 181.127559,1.37244 c 0,-0.20765 0.7875,-0.99515 1.75,-1.75 1.58606,-1.24387 1.62143,-1.2085 0.37756,0.37756 -1.30637,1.66575 -2.12756,2.19548 -2.12756,1.37244 z m -227.000004,-4 c 0,-0.20765 0.7875,-0.99515 1.75,-1.75 1.586056,-1.24387 1.621426,-1.2085 0.377555,0.37756 -1.306369,1.66575 -2.127555,2.19548 -2.127555,1.37244 z m 271.924314,-2.37244 -2.42431,-2.75 2.75,2.42431 c 2.57029,2.26589 3.20859,3.07569 2.42431,3.07569 -0.17912,0 -1.41662,-1.2375 -2.75,-2.75 z m -104.05187,-2 c -1.24387,-1.58606 -1.2085,-1.62143 0.37756,-0.37756 1.66575,1.30637 2.19548,2.12756 1.37244,2.12756 -0.20765,0 -0.99515,-0.7875 -1.75,-1.75 z m -55.87244,-6.62756 c 0,-0.20765 0.7875,-0.99515 1.75,-1.75 1.58606,-1.24387 1.62143,-1.2085 0.37756,0.37756 -1.30637,1.66575 -2.12756,2.19548 -2.12756,1.37244 z m 48.87244,-1.37244 c -1.24387,-1.58606 -1.2085,-1.62143 0.37756,-0.37756 0.9625,0.75485 1.75,1.54235 1.75,1.75 0,0.82304 -0.82119,0.29331 -2.12756,-1.37244 z m -129.999999,-2 c -1.243871,-1.58606 -1.208501,-1.62143 0.377555,-0.37756 0.9625,0.75485 1.75,1.54235 1.75,1.75 0,0.82304 -0.821186,0.29331 -2.127555,-1.37244 z m 211.127559,1.37244 c 0,-0.20765 0.7875,-0.99515 1.75,-1.75 1.58606,-1.24387 1.62143,-1.2085 0.37756,0.37756 -1.30637,1.66575 -2.12756,2.19548 -2.12756,1.37244 z M 12.609229,353.37723 c 0,-1.925 0.205795,-2.7125 0.457323,-1.75 0.251528,0.9625 0.251528,2.5375 0,3.5 -0.251528,0.9625 -0.457323,0.175 -0.457323,-1.75 z m 53.767997,-24.37756 c 0,-0.20765 0.7875,-0.99515 1.75,-1.75 1.586056,-1.24387 1.621426,-1.2085 0.377555,0.37756 -1.306369,1.66575 -2.127555,2.19548 -2.127555,1.37244 z m 198.872444,-1.37244 c -1.24387,-1.58606 -1.2085,-1.62143 0.37756,-0.37756 0.9625,0.75485 1.75,1.54235 1.75,1.75 0,0.82304 -0.82119,0.29331 -2.12756,-1.37244 z M 32.381396,324.53525 c -3.446888,-3.44689 -5.306148,-9.62378 -4.127698,-13.71317 0.999951,-3.46997 31.136415,-50.68738 34.908938,-54.69485 4.416623,-4.69169 7.544621,-3.84975 14.860952,4 11.423019,12.25585 11.232693,14.31928 -2.790185,30.25 -31.796964,36.12302 -32.661281,37 -36.465645,37 -2.561071,0 -4.332822,-0.78844 -6.386362,-2.84198 z m 102.868274,1.09198 c -1.24387,-1.58606 -1.2085,-1.62143 0.37756,-0.37756 1.66575,1.30637 2.19548,2.12756 1.37244,2.12756 -0.20765,0 -0.99515,-0.7875 -1.75,-1.75 z m 23.0136,-4 c -7.05514,-7.3076 -34.91342,-38.94633 -37.17742,-42.22251 -0.93974,-1.35987 -1.70862,-4.17158 -1.70862,-6.24823 0,-3.48962 1.603,-5.60083 21.15427,-27.8609 11.63485,-13.24684 22.24108,-24.49837 23.5694,-25.0034 5.48007,-2.08352 4.86402,-2.64309 35.57735,32.31596 13.41297,15.26715 14.69898,17.06309 14.69898,20.5275 0,4.7758 -0.31096,5.21141 -18.37597,25.74158 -22.46013,25.52506 -25.50021,28.5 -29.12403,28.5 -2.41809,0 -4.23087,-1.21007 -8.61396,-5.75 z m 38.11396,5.37244 c 0,-0.20765 0.7875,-0.99515 1.75,-1.75 1.58606,-1.24387 1.62143,-1.2085 0.37756,0.37756 -1.30637,1.66575 -2.12756,2.19548 -2.12756,1.37244 z m 83.65014,-12.37244 c -6.27822,-7.0125 -15.96523,-17.925 -21.52669,-24.25 -14.00438,-15.92707 -14.19357,-17.99335 -2.76981,-30.25 7.31633,-7.84975 10.44433,-8.69169 14.86095,-4 3.77252,4.00747 33.90899,51.22488 34.90894,54.69485 2.06484,7.1653 -3.89859,16.55515 -10.51406,16.55515 -3.27699,0 -4.40554,-0.96188 -14.95933,-12.75 z M 81.377226,311.99967 c 0,-0.20765 0.7875,-0.99515 1.75,-1.75 1.586056,-1.24387 1.621426,-1.2085 0.377555,0.37756 -1.306369,1.66575 -2.127555,2.19548 -2.127555,1.37244 z m 168.872444,-1.37244 c -1.24387,-1.58606 -1.2085,-1.62143 0.37756,-0.37756 0.9625,0.75485 1.75,1.54235 1.75,1.75 0,0.82304 -0.82119,0.29331 -2.12756,-1.37244 z m -130,-2 c -1.24387,-1.58606 -1.2085,-1.62143 0.37756,-0.37756 0.9625,0.75485 1.75,1.54235 1.75,1.75 0,0.82304 -0.82119,0.29331 -2.12756,-1.37244 z M 93.20755,248.19444 c -12.618109,-13.59359 -12.43352,-13.89617 21.24578,-34.82635 21.93121,-13.62927 27.01628,-16.38941 30.87821,-16.76049 6.09767,-0.58591 7.75795,1.1292 5.74854,5.93839 -1.24798,2.98684 -37.85719,45.72535 -42.89889,50.08124 -1.12083,0.96837 -3.63547,1.75 -5.63003,1.75 -3.131843,0 -4.357059,-0.81074 -9.34361,-6.18279 z m 132.37019,4.43279 c -5.15202,-4.46106 -41.61371,-46.99468 -42.87628,-50.01642 -2.03473,-4.8698 -0.40112,-6.59151 5.69815,-6.00545 3.8317,0.36818 8.98974,3.16913 30.88284,16.77021 33.70204,20.93737 33.87973,21.22833 21.26446,34.81887 -4.98656,5.37205 -6.21177,6.18279 -9.34362,6.18279 -1.99626,0 -4.50623,-0.78081 -5.62555,-1.75 z"
       style="fill:#fec917" />
    <path
       id="path3770"
       d="m 158.25711,612.62723 c -6.0288,-6.2376 -33.07374,-36.94555 -36.66843,-41.63486 -1.40732,-1.83587 -2.21145,-4.29738 -2.21145,-6.76949 0,-3.63324 1.3752,-5.4477 21.25,-28.03748 12.76968,-14.51408 22.287,-24.49625 23.84852,-25.01335 1.52321,-0.50441 3.63875,-0.46501 5.11225,0.0952 1.38255,0.52564 12.02571,11.78627 23.65148,25.02362 19.7384,22.47459 21.13775,24.32441 21.13775,27.94228 0,4.60111 0.0969,4.46693 -18.88762,26.14408 -21.74071,24.8242 -24.98596,28 -28.61238,28 -2.41737,0 -4.23347,-1.21141 -8.62012,-5.75 z m -104.183743,-19.5 c -4.063154,-4.13118 -32.696141,-57.27179 -32.696141,-60.68151 0,-4.77368 2.392648,-9.50486 7.648244,-15.12352 10.040506,-10.73411 9.690009,-10.90911 34.513286,17.23172 11.186159,12.68115 20.949324,24.194 21.695924,25.5841 2.564805,4.77545 0.872772,8.64072 -8.487268,19.38827 -13.713893,15.7468 -13.827666,15.85094 -17.31685,15.85094 -1.938343,0 -3.99297,-0.86294 -5.357195,-2.25 z m 216.654003,1.48469 c -0.63242,-0.40408 -5.91311,-6.13469 -11.73486,-12.73469 -10.68579,-12.11425 -12.63341,-15.71681 -11.10323,-20.53797 0.38611,-1.21651 8.47244,-11.04313 17.96964,-21.83694 25.18625,-28.62481 24.65524,-28.08358 28.20862,-28.75152 2.83386,-0.53269 3.8076,-0.0159 8.71499,4.62531 6.13908,5.80609 9.5947,11.91902 9.5947,16.97286 0,2.4404 -4.19239,10.90899 -15.5616,31.43428 -8.55888,15.45169 -16.48373,28.88148 -17.61078,29.84398 -2.09951,1.79298 -6.42592,2.2955 -8.47748,0.98469 z M 98.550066,543.78574 C 97.300371,542.91042 87.303308,532.01807 76.334372,519.58051 55.86485,496.37035 54.184942,493.77016 56.174845,488.37723 57.58563,484.5538 96.484812,440.71303 99.72087,439.2993 c 1.93969,-0.84738 3.68593,-0.94607 5.49328,-0.31046 3.53482,1.24313 42.94379,45.90307 44.02268,49.88839 0.9728,3.59343 -0.12081,8.04687 -2.67914,10.91013 -1.02702,1.14943 -10.23229,11.59253 -20.45617,23.2069 -10.22387,11.61436 -19.33113,21.40186 -20.23836,21.75 -2.67568,1.02675 -4.89379,0.73602 -7.313094,-0.95852 z m 129.023274,0.91125 c -2.33493,-0.9354 -41.38934,-45.7236 -42.86262,-49.15551 -1.10025,-2.56299 -1.18513,-4.08375 -0.3664,-6.56453 1.41307,-4.28166 40.77332,-48.78442 44.21884,-49.99615 1.77793,-0.62526 3.54572,-0.52464 5.47043,0.31138 3.1983,1.38922 42.14771,45.32639 43.56199,49.14042 1.93583,5.22056 0.17424,8.04545 -17.75567,28.47291 -25.03331,28.52034 -26.752,30.00066 -32.26657,27.79148 z M 12.02104,499.12723 c -1.261922,-2.02477 -4.6438136,-18.15082 -4.6438136,-22.14333 0,-3.43895 3.9587296,-1.4489 8.9134516,4.48078 4.444398,5.31893 5.086548,6.65024 5.086548,10.54545 0,3.39986 -0.582608,5.04062 -2.454545,6.91255 -3.051676,3.05168 -5.089551,3.11208 -6.901641,0.20455 z m 302.81074,-0.20455 c -1.87194,-1.87193 -2.45455,-3.51269 -2.45455,-6.91255 0,-3.89521 0.64215,-5.22652 5.08655,-10.54545 4.95472,-5.92968 8.91345,-7.91973 8.91345,-4.48078 0,0.88366 -0.72934,5.72116 -1.62076,10.75 -2.40014,13.54009 -4.8319,16.28158 -9.92469,11.18878 z"
       style="fill:#fe7e26" />
    <path
       id="path3768"
       d="m 108.59481,631.49 c -15.005341,-6.50379 -28.392841,-12.86824 -29.750008,-14.14323 -1.662521,-1.56186 -2.467576,-3.40142 -2.467576,-5.63844 0,-2.79164 1.685548,-5.24089 10.586727,-15.38341 11.293007,-12.86792 14.023857,-14.76584 18.548997,-12.89147 3.03051,1.25528 42.60785,45.61343 45.24172,50.70677 3.39758,6.57019 0.93474,9.25139 -8.45618,9.20593 -5.96412,-0.0289 -8.36353,-0.87293 -33.70368,-11.85615 z m 74.3432,9.95439 c -3.80707,-4.20676 -2.17664,-6.44047 36.65706,-50.2206 6.66514,-7.51411 10.07229,-9.44715 14.01156,-7.94944 1.42843,0.54309 7.36117,6.41584 13.18387,13.05057 8.88361,10.1225 10.58673,12.59522 10.58673,15.37063 0,2.3313 -0.81166,4.05042 -2.75,5.82463 -1.5125,1.38443 -14.96802,7.76862 -29.90115,14.18709 -25.30612,10.87694 -27.58903,11.66996 -33.59501,11.66996 -5.09924,0 -6.80887,-0.40332 -8.19306,-1.93284 z"
       style="fill:#eb1b23" />
    <path
       id="path3766"
       d="M 102.19612,195.74623 C 99.552906,194.64909 90.847223,185.89695 71.319528,164.70486 56.36201,148.47249 44.068507,134.46299 44.000633,133.57265 c -0.06787,-0.89033 0.600636,-1.76931 1.485577,-1.95327 2.293373,-0.47676 101.88353,44.5189 104.86577,47.37922 2.46315,2.36246 2.46549,2.38272 0.5,4.32447 -2.12239,2.09676 -38.61435,14.08955 -42.60753,14.00263 -1.30197,-0.0283 -4.02372,-0.7391 -6.04833,-1.57947 z m 101.18111,-4.51714 c -10.31134,-3.31674 -19.37408,-6.8152 -20.47475,-7.9038 -1.96557,-1.94404 -1.96325,-1.96414 0.5,-4.32608 2.97104,-2.84885 102.59584,-47.85223 104.87966,-47.37716 0.8773,0.1825 1.53956,1.06027 1.47168,1.9506 -0.0679,0.89034 -12.36036,14.89874 -27.31665,31.12978 -28.04565,30.43604 -30.82505,32.82942 -37.83018,32.57607 -1.50137,-0.0543 -11.05476,-2.77653 -21.22976,-6.04941 z m -43,-26.49011 c -15.35539,-5.99563 -43.26387,-18.21015 -45.65521,-19.98161 -1.73536,-1.28553 -4.04762,-3.80946 -5.13834,-5.60873 -2.24617,-3.70533 -15.555854,-59.312476 -15.039996,-62.836322 0.183448,-1.25314 0.806217,-2.433742 1.383932,-2.623561 0.577714,-0.189818 15.804144,14.737434 33.836504,33.171673 l 32.78611,33.5168 h 4.327 4.327 l 32.78611,-33.5168 c 18.03236,-18.434239 33.25879,-33.362035 33.8365,-33.172882 0.57771,0.189154 1.18388,1.454479 1.34703,2.811834 0.40187,3.343262 -12.4462,57.498408 -14.66759,61.824558 -2.86612,5.58175 -7.46495,8.3165 -29.62905,17.61927 -17.23107,7.23227 -22.07684,8.86507 -27,9.09781 -3.3,0.15601 -6.675,0.0201 -7.5,-0.30204 z m 2.80995,-43.29661 c -1.35288,-1.06417 -5.28932,-6.22597 -8.74766,-11.47068 -9.18566,-13.93041 -9.19998,-12.966435 0.90033,-60.594464 9.78578,-46.1448413 9.74955,-45.9999996 11.50854,-45.9999996 1.824,0 1.21514,-2.392021 11.0724,43.4999996 10.70381,49.833247 10.68521,49.004215 1.41504,63.062784 -6.14971,9.32629 -9.96125,13.43722 -12.4586,13.43722 -0.67666,0 -2.33718,-0.87069 -3.69005,-1.93486 z"
       style="fill:#0ed044" />
  </g>
</svg>
